<?xml version="1.0" encoding="utf-8"?>
<!-- Generator: Adobe Illustrator 16.0.0, SVG Export Plug-In . SVG Version: 6.00 Build 0)  -->
<!DOCTYPE svg PUBLIC "-//W3C//DTD SVG 1.1//EN" "http://www.w3.org/Graphics/SVG/1.1/DTD/svg11.dtd">
<svg version="1.1" id="Layer_1" xmlns="http://www.w3.org/2000/svg" xmlns:xlink="http://www.w3.org/1999/xlink" x="0px" y="0px"
	 width="64px" height="64px" viewBox="0 0 64 64" enable-background="new 0 0 64 64" xml:space="preserve">
<g>
	<path d="M29.538,11.427c1.135-1.422,1.643-3.203,1.437-5.01c-0.394-3.439-3.298-6.036-6.757-6.036
		c-4.079,0-7.236,3.553-6.778,7.583C18.14,14.032,25.812,16.124,29.538,11.427z"/>
	<path d="M60.131,57.869c-0.305-0.629-18.869-35.713-20.928-39.306c4.522-1.179,8.429,0.446,11.507,4.758
		c3.291,4.596,8.423,0.325,5.075-4.353c-5.586-7.825-16.646-11.335-25.297-6.202c-3.797,2.257-6.878,3.979-11.128,3.979
		c-8.892,0-8.805-6.845-12.94-6.845c-2.49,0-4.257,2.893-2.011,6.036c5.951,8.335,13.982,10.846,21.84,8.608
		c2.311,3.987,4.567,8.109,6.888,12.592l-9.311,6.419c-3.013,2.636-0.628,6.329,1.306,7.489c2.332,1.403,5.305,2.868,8.196,4.297
		c6.127,3.023,6.447,3.391,8.085,3.516c3.354,0.256,5.588-4.755,1.627-7.133c-2.48-1.49-5.871-3.719-8.447-5.299
		c2.282-1.459,7.628-3.691,7.887-3.838c3.377,5.734,5.778,9.905,7.551,12.941c-0.011,0.003-0.02,0.008-0.03,0.01
		c0.008,0.016,0.017,0.028,0.024,0.042c3.474,5.884,3.541,6.366,4.843,7.367C57.534,65,62.146,62.027,60.131,57.869z"/>
</g>
</svg>
